<svg width="267" height="155" viewBox="0 0 267 155" fill="none" xmlns="http://www.w3.org/2000/svg">
<g filter="url(#filter0_d_22_2)">
<g filter="url(#filter1_f_22_2)">
<path d="M29.1815 150.446H237.95C240.202 150.446 245.654 151.036 250.127 151.764C254.6 152.492 256.128 153.082 253.539 153.082H13.5928C11.0039 153.082 12.5312 152.492 17.0041 151.764C21.477 151.036 26.929 150.446 29.1815 150.446Z" fill="black" fill-opacity="0.4"/>
</g>
<g filter="url(#filter2_dd_22_2)">
<path d="M26.1692 11.1212C26.1692 7.57846 26.1692 5.80708 26.8586 4.45392C27.465 3.26366 28.4326 2.29594 29.6228 1.68947C30.9759 1 32.7471 1 36.2895 1H230.711C234.253 1 236.024 1 237.377 1.68947C238.568 2.29594 239.535 3.26366 240.142 4.45392C240.831 5.80708 240.831 7.57846 240.831 11.1212V138.216C240.831 141.759 240.831 143.53 240.142 144.884C239.535 146.074 238.568 147.041 237.377 147.648C236.024 148.337 234.253 148.337 230.711 148.337H36.2895C32.7471 148.337 30.9759 148.337 29.6228 147.648C28.4326 147.041 27.465 146.074 26.8586 144.884C26.1692 143.53 26.1692 141.759 26.1692 138.216V11.1212Z" fill="#717576"/>
</g>
<path d="M26.6963 10.8049C26.6963 7.55735 26.6963 5.93359 27.3282 4.6932C27.8841 3.60212 28.7711 2.71504 29.8621 2.15911C31.1024 1.5271 32.726 1.5271 35.9733 1.5271H231.027C234.274 1.5271 235.898 1.5271 237.138 2.15911C238.229 2.71504 239.116 3.60212 239.672 4.6932C240.304 5.93359 240.304 7.55735 240.304 10.8049V138.532C240.304 141.78 240.304 143.404 239.672 144.644C239.116 145.735 238.229 146.622 237.138 147.178C235.898 147.81 234.274 147.81 231.027 147.81H35.9733C32.726 147.81 31.1024 147.81 29.8621 147.178C28.7711 146.622 27.8841 145.735 27.3282 144.644C26.6963 143.404 26.6963 141.78 26.6963 138.532V10.8049Z" fill="#262C2D"/>
<rect x="27.2234" y="140.298" width="212.553" height="3.95359" fill="#262C2D"/>
<path fill-rule="evenodd" clip-rule="evenodd" d="M133.5 6.93037C133.9 6.93037 134.225 6.60585 134.225 6.20554C134.225 5.80523 133.9 5.48071 133.5 5.48071C133.1 5.48071 132.775 5.80523 132.775 6.20554C132.775 6.60585 133.1 6.93037 133.5 6.93037Z" fill="#262C2D"/>
<path fill-rule="evenodd" clip-rule="evenodd" d="M133.5 6.65872C133.75 6.65872 133.953 6.4559 133.953 6.2057C133.953 5.95551 133.75 5.75269 133.5 5.75269C133.25 5.75269 133.047 5.95551 133.047 6.2057C133.047 6.4559 133.25 6.65872 133.5 6.65872Z" fill="#121515"/>
<path opacity="0.4" fill-rule="evenodd" clip-rule="evenodd" d="M133.5 6.11504C133.55 6.11504 133.591 6.07448 133.591 6.02444C133.591 5.9744 133.55 5.93384 133.5 5.93384C133.45 5.93384 133.409 5.9744 133.409 6.02444C133.409 6.07448 133.45 6.11504 133.5 6.11504Z" fill="#636F73"/>
<path d="M1 144.516C1 144.371 1.118 144.253 1.26355 144.253H133.236C133.382 144.253 133.5 144.371 133.5 144.516V148.338H1V144.516Z" fill="url(#paint0_linear_22_2)"/>
<path d="M265.934 144.516C265.934 144.37 265.816 144.252 265.671 144.252H133.698C133.552 144.252 133.434 144.37 133.434 144.516V148.337H265.934V144.516Z" fill="url(#paint1_linear_22_2)"/>
<path d="M117.621 147.151H149.379C151.053 147.151 152.41 145.853 152.41 144.252H114.59C114.59 145.853 115.947 147.151 117.621 147.151Z" fill="#ABAEB0"/>
<path d="M117.489 147.151H149.247C150.921 147.151 152.278 145.853 152.278 144.252H114.458C114.458 145.853 115.815 147.151 117.489 147.151Z" fill="url(#paint2_linear_22_2)"/>
<path fill-rule="evenodd" clip-rule="evenodd" d="M133.302 148.337H266C266 148.337 260.202 152.027 241.16 152.027H133.566V152.028H25.8396C6.79811 152.028 1 148.337 1 148.337H133.302V148.337Z" fill="url(#paint3_linear_22_2)"/>
<rect x="33.6846" y="13.5149" width="199.509" height="122.111" fill="#262C43"/>
<path d="M54.1933 37.599H55.23L55.372 41.9353H54.0513L54.1933 37.599ZM55.4064 36.2697C55.4064 36.4619 55.3404 36.6196 55.2085 36.7429C55.0766 36.8662 54.9103 36.9279 54.7095 36.9279C54.5088 36.9279 54.3424 36.8662 54.2105 36.7429C54.0786 36.6196 54.0126 36.4619 54.0126 36.2697C54.0126 36.0776 54.0757 35.9198 54.2019 35.7965C54.3309 35.6732 54.5001 35.6115 54.7095 35.6115C54.9189 35.6115 55.0866 35.6732 55.2128 35.7965C55.3419 35.9198 55.4064 36.0776 55.4064 36.2697ZM56.5077 40.3479V34.0844H58.7016C59.4616 34.0844 60.0381 34.2306 60.431 34.5232C60.8239 34.8128 61.0204 35.2387 61.0204 35.8008C61.0204 36.1077 60.9415 36.3787 60.7838 36.6139C60.626 36.8462 60.4066 37.0168 60.1256 37.1258C60.4468 37.2061 60.6992 37.3681 60.8827 37.6119C61.0691 37.8557 61.1623 38.1539 61.1623 38.5067C61.1623 39.109 60.9702 39.565 60.5859 39.8747C60.2016 40.1844 59.6538 40.3422 58.9426 40.3479H56.5077ZM57.7983 37.6205V39.3111H58.9038C59.2078 39.3111 59.4444 39.2394 59.6136 39.0961C59.7857 38.9498 59.8718 38.749 59.8718 38.4938C59.8718 37.9202 59.5749 37.6291 58.9813 37.6205H57.7983ZM57.7983 36.7085H58.7533C59.4043 36.697 59.7298 36.4375 59.7298 35.9299C59.7298 35.6459 59.6466 35.4423 59.4803 35.319C59.3168 35.1928 59.0573 35.1297 58.7016 35.1297H57.7983V36.7085ZM63.3649 40.3479H62.1173V35.6933H63.3649V40.3479ZM62.0442 34.4887C62.0442 34.3023 62.1059 34.1489 62.2292 34.0284C62.3554 33.908 62.526 33.8478 62.7411 33.8478C62.9533 33.8478 63.1225 33.908 63.2487 34.0284C63.3749 34.1489 63.438 34.3023 63.438 34.4887C63.438 34.678 63.3735 34.8329 63.2444 34.9533C63.1182 35.0738 62.9505 35.134 62.7411 35.134C62.5318 35.134 62.3625 35.0738 62.2335 34.9533C62.1073 34.8329 62.0442 34.678 62.0442 34.4887ZM66.5354 40.4339C65.8528 40.4339 65.2964 40.2246 64.8662 39.8059C64.4389 39.3871 64.2253 38.8293 64.2253 38.1324V38.012C64.2253 37.5445 64.3156 37.1272 64.4963 36.7601C64.677 36.3902 64.9322 36.1062 65.262 35.9084C65.5947 35.7076 65.9733 35.6072 66.3977 35.6072C67.0344 35.6072 67.5348 35.808 67.8991 36.2095C68.2662 36.611 68.4497 37.1803 68.4497 37.9173V38.425H65.4857C65.5259 38.729 65.6463 38.9727 65.8471 39.1563C66.0507 39.3398 66.3074 39.4316 66.6171 39.4316C67.096 39.4316 67.4703 39.2581 67.7399 38.9111L68.3508 39.5951C68.1643 39.8589 67.912 40.0654 67.5936 40.2145C67.2753 40.3608 66.9225 40.4339 66.5354 40.4339ZM66.3934 36.6139C66.1468 36.6139 65.946 36.697 65.7911 36.8634C65.6391 37.0297 65.5416 37.2678 65.4986 37.5775H67.228V37.4785C67.2222 37.2032 67.1477 36.991 67.0043 36.8419C66.8609 36.6899 66.6573 36.6139 66.3934 36.6139ZM70.3038 35.6933L70.3425 36.231C70.6752 35.8152 71.1212 35.6072 71.6804 35.6072C72.1737 35.6072 72.5408 35.7521 72.7817 36.0417C73.0226 36.3314 73.1459 36.7644 73.1517 37.3409V40.3479H71.9084V37.371C71.9084 37.1072 71.8511 36.9164 71.7363 36.7989C71.6216 36.6784 71.4309 36.6182 71.1642 36.6182C70.8143 36.6182 70.5519 36.7673 70.3769 37.0656V40.3479H69.1337V35.6933H70.3038ZM78.2924 38.0636C78.2924 38.8093 78.1332 39.3914 77.8149 39.8102C77.4966 40.226 77.052 40.4339 76.4813 40.4339C75.9766 40.4339 75.5736 40.2404 75.2725 39.8532L75.2166 40.3479H74.0981V33.7402H75.3413V36.1105C75.6281 35.775 76.0052 35.6072 76.4727 35.6072C77.0406 35.6072 77.4851 35.8166 77.8063 36.2353C78.1304 36.6512 78.2924 37.2376 78.2924 37.9948V38.0636ZM77.0492 37.9733C77.0492 37.5029 76.9746 37.1602 76.8255 36.9451C76.6763 36.7272 76.4541 36.6182 76.1587 36.6182C75.7629 36.6182 75.4904 36.7802 75.3413 37.1043V38.9412C75.4933 39.2681 75.7686 39.4316 76.1673 39.4316C76.5688 39.4316 76.8326 39.2337 76.9588 38.8379C77.019 38.6487 77.0492 38.3604 77.0492 37.9733ZM81.2048 40.4339C80.5222 40.4339 79.9658 40.2246 79.5356 39.8059C79.1083 39.3871 78.8947 38.8293 78.8947 38.1324V38.012C78.8947 37.5445 78.985 37.1272 79.1657 36.7601C79.3464 36.3902 79.6016 36.1062 79.9314 35.9084C80.2641 35.7076 80.6427 35.6072 81.0671 35.6072C81.7038 35.6072 82.2042 35.808 82.5685 36.2095C82.9356 36.611 83.1191 37.1803 83.1191 37.9173V38.425H80.1551C80.1953 38.729 80.3157 38.9727 80.5165 39.1563C80.7201 39.3398 80.9768 39.4316 81.2865 39.4316C81.7655 39.4316 82.1397 39.2581 82.4093 38.9111L83.0202 39.5951C82.8338 39.8589 82.5814 40.0654 82.263 40.2145C81.9447 40.3608 81.5919 40.4339 81.2048 40.4339ZM81.0628 36.6139C80.8162 36.6139 80.6154 36.697 80.4605 36.8634C80.3085 37.0297 80.211 37.2678 80.168 37.5775H81.8974V37.4785C81.8916 37.2032 81.8171 36.991 81.6737 36.8419C81.5303 36.6899 81.3267 36.6139 81.0628 36.6139ZM84.9732 35.6933L85.0119 36.231C85.3446 35.8152 85.7906 35.6072 86.3498 35.6072C86.8431 35.6072 87.2102 35.7521 87.4511 36.0417C87.692 36.3314 87.8153 36.7644 87.8211 37.3409V40.3479H86.5778V37.371C86.5778 37.1072 86.5205 36.9164 86.4057 36.7989C86.291 36.6784 86.1003 36.6182 85.8336 36.6182C85.4837 36.6182 85.2213 36.7673 85.0464 37.0656V40.3479H83.8031V35.6933H84.9732ZM90.0796 40.3479H88.832V35.6933H90.0796V40.3479ZM88.7589 34.4887C88.7589 34.3023 88.8205 34.1489 88.9439 34.0284C89.07 33.908 89.2407 33.8478 89.4558 33.8478C89.668 33.8478 89.8372 33.908 89.9634 34.0284C90.0896 34.1489 90.1527 34.3023 90.1527 34.4887C90.1527 34.678 90.0882 34.8329 89.9591 34.9533C89.8329 35.0738 89.6651 35.134 89.4558 35.134C89.2464 35.134 89.0772 35.0738 88.9482 34.9533C88.822 34.8329 88.7589 34.678 88.7589 34.4887ZM90.9141 37.9862C90.9141 37.2606 91.0762 36.6827 91.4002 36.2525C91.7272 35.8223 92.1731 35.6072 92.7381 35.6072C93.1912 35.6072 93.5655 35.7764 93.8609 36.1149V33.7402H95.1084V40.3479H93.9857L93.9254 39.8532C93.6157 40.2404 93.2171 40.4339 92.7295 40.4339C92.1817 40.4339 91.7415 40.2188 91.4088 39.7887C91.079 39.3556 90.9141 38.7548 90.9141 37.9862ZM92.1574 38.0765C92.1574 38.5124 92.2334 38.8465 92.3854 39.0788C92.5374 39.3111 92.7582 39.4273 93.0478 39.4273C93.4321 39.4273 93.7032 39.2653 93.8609 38.9412V37.1043C93.706 36.7802 93.4379 36.6182 93.0565 36.6182C92.4571 36.6182 92.1574 37.1043 92.1574 38.0765ZM95.8785 37.9776C95.8785 37.5158 95.9674 37.1043 96.1452 36.7429C96.323 36.3816 96.5783 36.1019 96.9109 35.9041C97.2465 35.7062 97.6351 35.6072 98.0767 35.6072C98.7048 35.6072 99.2167 35.7994 99.6125 36.1837C100.011 36.568 100.233 37.0899 100.279 37.7496L100.288 38.0679C100.288 38.782 100.089 39.3556 99.6899 39.7887C99.2913 40.2188 98.7564 40.4339 98.0853 40.4339C97.4143 40.4339 96.878 40.2188 96.4764 39.7887C96.0778 39.3585 95.8785 38.7734 95.8785 38.0335V37.9776ZM97.1217 38.0679C97.1217 38.5096 97.2049 38.848 97.3712 39.0831C97.5376 39.3154 97.7756 39.4316 98.0853 39.4316C98.3865 39.4316 98.6216 39.3169 98.7909 39.0874C98.9601 38.8551 99.0447 38.4852 99.0447 37.9776C99.0447 37.5445 98.9601 37.209 98.7909 36.9709C98.6216 36.7329 98.3836 36.6139 98.0767 36.6139C97.7727 36.6139 97.5376 36.7329 97.3712 36.9709C97.2049 37.2061 97.1217 37.5718 97.1217 38.0679ZM105.945 40.3479C105.888 40.2361 105.846 40.097 105.82 39.9306C105.519 40.2662 105.128 40.4339 104.646 40.4339C104.19 40.4339 103.811 40.302 103.51 40.0382C103.212 39.7743 103.063 39.4416 103.063 39.0401C103.063 38.5468 103.245 38.1683 103.609 37.9044C103.976 37.6406 104.505 37.5072 105.196 37.5044H105.769V37.2376C105.769 37.0225 105.713 36.8505 105.601 36.7214C105.492 36.5924 105.318 36.5278 105.08 36.5278C104.871 36.5278 104.706 36.578 104.585 36.6784C104.468 36.7788 104.409 36.9164 104.409 37.0914H103.166C103.166 36.8218 103.249 36.5723 103.415 36.3429C103.582 36.1134 103.817 35.9342 104.121 35.8051C104.425 35.6732 104.766 35.6072 105.145 35.6072C105.718 35.6072 106.173 35.7521 106.508 36.0417C106.847 36.3285 107.016 36.7329 107.016 37.2548V39.2724C107.019 39.7141 107.081 40.0482 107.201 40.2748V40.3479H105.945ZM104.917 39.4832C105.1 39.4832 105.269 39.4431 105.424 39.3628C105.579 39.2796 105.694 39.1692 105.769 39.0315V38.2314H105.304C104.682 38.2314 104.35 38.4465 104.31 38.8767L104.306 38.9498C104.306 39.1047 104.36 39.2323 104.469 39.3327C104.578 39.433 104.727 39.4832 104.917 39.4832Z" fill="white"/>
<path d="M110.247 40.3479V34.0844H112.174C112.725 34.0844 113.216 34.2091 113.65 34.4586C114.085 34.7053 114.425 35.058 114.669 35.5169C114.913 35.9729 115.035 36.492 115.035 37.0742V37.3624C115.035 37.9446 114.914 38.4622 114.673 38.9154C114.435 39.3685 114.098 39.7198 113.662 39.9693C113.227 40.2188 112.735 40.345 112.187 40.3479H110.247ZM111.537 35.1297V39.3111H112.161C112.666 39.3111 113.052 39.1462 113.318 38.8164C113.585 38.4866 113.721 38.0148 113.727 37.4011V37.0699C113.727 36.4332 113.595 35.9514 113.331 35.6244C113.067 35.2946 112.682 35.1297 112.174 35.1297H111.537ZM117.207 40.3479H115.96V35.6933H117.207V40.3479ZM115.887 34.4887C115.887 34.3023 115.948 34.1489 116.071 34.0284C116.198 33.908 116.368 33.8478 116.583 33.8478C116.796 33.8478 116.965 33.908 117.091 34.0284C117.217 34.1489 117.28 34.3023 117.28 34.4887C117.28 34.678 117.216 34.8329 117.087 34.9533C116.961 35.0738 116.793 35.134 116.583 35.134C116.374 35.134 116.205 35.0738 116.076 34.9533C115.95 34.8329 115.887 34.678 115.887 34.4887ZM118.055 37.9862C118.055 37.2721 118.224 36.697 118.562 36.2611C118.904 35.8252 119.362 35.6072 119.939 35.6072C120.449 35.6072 120.847 35.7822 121.131 36.1321L121.182 35.6933H122.309V40.193C122.309 40.6003 122.216 40.9545 122.03 41.2556C121.846 41.5567 121.587 41.7862 121.251 41.9439C120.915 42.1016 120.523 42.1805 120.072 42.1805C119.731 42.1805 119.398 42.1117 119.074 41.974C118.75 41.8392 118.505 41.6643 118.339 41.4492L118.889 40.6921C119.199 41.0391 119.575 41.2126 120.016 41.2126C120.346 41.2126 120.603 41.1237 120.786 40.9459C120.97 40.7709 121.062 40.5214 121.062 40.1973V39.9478C120.775 40.2719 120.398 40.4339 119.93 40.4339C119.371 40.4339 118.918 40.216 118.571 39.7801C118.227 39.3413 118.055 38.7605 118.055 38.0378V37.9862ZM119.298 38.0765C119.298 38.4981 119.383 38.8293 119.552 39.0702C119.721 39.3083 119.953 39.4273 120.249 39.4273C120.627 39.4273 120.898 39.2853 121.062 39.0014V37.0441C120.895 36.7601 120.627 36.6182 120.257 36.6182C119.959 36.6182 119.724 36.7401 119.552 36.9838C119.383 37.2276 119.298 37.5918 119.298 38.0765ZM124.581 40.3479H123.333V35.6933H124.581V40.3479ZM123.26 34.4887C123.26 34.3023 123.322 34.1489 123.445 34.0284C123.571 33.908 123.742 33.8478 123.957 33.8478C124.169 33.8478 124.338 33.908 124.464 34.0284C124.591 34.1489 124.654 34.3023 124.654 34.4887C124.654 34.678 124.589 34.8329 124.46 34.9533C124.334 35.0738 124.166 35.134 123.957 35.134C123.747 35.134 123.578 35.0738 123.449 34.9533C123.323 34.8329 123.26 34.678 123.26 34.4887ZM127.097 34.549V35.6933H127.893V36.6053H127.097V38.9283C127.097 39.1004 127.13 39.2237 127.196 39.2982C127.262 39.3728 127.388 39.4101 127.575 39.4101C127.712 39.4101 127.834 39.4001 127.94 39.38V40.3221C127.697 40.3967 127.446 40.4339 127.188 40.4339C126.316 40.4339 125.871 39.9937 125.854 39.1133V36.6053H125.174V35.6933H125.854V34.549H127.097ZM131.283 40.3479C131.226 40.2361 131.184 40.097 131.158 39.9306C130.857 40.2662 130.466 40.4339 129.984 40.4339C129.528 40.4339 129.149 40.302 128.848 40.0382C128.55 39.7743 128.401 39.4416 128.401 39.0401C128.401 38.5468 128.583 38.1683 128.947 37.9044C129.314 37.6406 129.843 37.5072 130.534 37.5044H131.107V37.2376C131.107 37.0225 131.051 36.8505 130.939 36.7214C130.83 36.5924 130.656 36.5278 130.418 36.5278C130.209 36.5278 130.044 36.578 129.924 36.6784C129.806 36.7788 129.747 36.9164 129.747 37.0914H128.504C128.504 36.8218 128.587 36.5723 128.753 36.3429C128.92 36.1134 129.155 35.9342 129.459 35.8051C129.763 35.6732 130.104 35.6072 130.483 35.6072C131.056 35.6072 131.511 35.7521 131.846 36.0417C132.185 36.3285 132.354 36.7329 132.354 37.2548V39.2724C132.357 39.7141 132.419 40.0482 132.539 40.2748V40.3479H131.283ZM130.255 39.4832C130.438 39.4832 130.608 39.4431 130.762 39.3628C130.917 39.2796 131.032 39.1692 131.107 39.0315V38.2314H130.642C130.02 38.2314 129.688 38.4465 129.648 38.8767L129.644 38.9498C129.644 39.1047 129.698 39.2323 129.807 39.3327C129.916 39.433 130.066 39.4832 130.255 39.4832ZM134.621 40.3479H133.374V33.7402H134.621V40.3479ZM140.364 39.0616C140.364 38.9096 140.288 38.7906 140.136 38.7046C139.987 38.6157 139.746 38.5368 139.413 38.468C138.306 38.2357 137.753 37.7653 137.753 37.057C137.753 36.644 137.924 36.2998 138.265 36.0245C138.609 35.7463 139.058 35.6072 139.611 35.6072C140.202 35.6072 140.674 35.7463 141.027 36.0245C141.382 36.3027 141.56 36.6641 141.56 37.1086H140.317C140.317 36.9308 140.26 36.7845 140.145 36.6698C140.03 36.5522 139.851 36.4934 139.607 36.4934C139.398 36.4934 139.236 36.5407 139.121 36.6354C139.006 36.73 138.949 36.8505 138.949 36.9967C138.949 37.1344 139.013 37.2462 139.142 37.3323C139.274 37.4155 139.495 37.4886 139.805 37.5517C140.115 37.6119 140.376 37.6807 140.588 37.7582C141.245 37.9991 141.573 38.4164 141.573 39.01C141.573 39.4345 141.391 39.7786 141.027 40.0425C140.662 40.3034 140.192 40.4339 139.616 40.4339C139.226 40.4339 138.879 40.3651 138.575 40.2274C138.273 40.0869 138.037 39.8962 137.865 39.6553C137.693 39.4115 137.607 39.1491 137.607 38.8681H138.785C138.797 39.0889 138.879 39.2581 139.031 39.3757C139.183 39.4933 139.386 39.5521 139.641 39.5521C139.88 39.5521 140.059 39.5076 140.179 39.4187C140.303 39.3269 140.364 39.2079 140.364 39.0616ZM142.184 37.9776C142.184 37.5158 142.273 37.1043 142.451 36.7429C142.628 36.3816 142.884 36.1019 143.216 35.9041C143.552 35.7062 143.941 35.6072 144.382 35.6072C145.01 35.6072 145.522 35.7994 145.918 36.1837C146.317 36.568 146.539 37.0899 146.585 37.7496L146.593 38.0679C146.593 38.782 146.394 39.3556 145.995 39.7887C145.597 40.2188 145.062 40.4339 144.391 40.4339C143.72 40.4339 143.183 40.2188 142.782 39.7887C142.383 39.3585 142.184 38.7734 142.184 38.0335V37.9776ZM143.427 38.0679C143.427 38.5096 143.51 38.848 143.677 39.0831C143.843 39.3154 144.081 39.4316 144.391 39.4316C144.692 39.4316 144.927 39.3169 145.096 39.0874C145.265 38.8551 145.35 38.4852 145.35 37.9776C145.35 37.5445 145.265 37.209 145.096 36.9709C144.927 36.7329 144.689 36.6139 144.382 36.6139C144.078 36.6139 143.843 36.7329 143.677 36.9709C143.51 37.2061 143.427 37.5718 143.427 38.0679ZM148.671 40.3479H147.424V33.7402H148.671V40.3479ZM152.487 39.8747C152.18 40.2475 151.756 40.4339 151.214 40.4339C150.715 40.4339 150.333 40.2905 150.069 40.0038C149.808 39.717 149.675 39.2968 149.669 38.7433V35.6933H150.912V38.7003C150.912 39.185 151.133 39.4273 151.575 39.4273C151.996 39.4273 152.286 39.281 152.444 38.9885V35.6933H153.691V40.3479H152.521L152.487 39.8747ZM156.118 34.549V35.6933H156.914V36.6053H156.118V38.9283C156.118 39.1004 156.151 39.2237 156.217 39.2982C156.283 39.3728 156.409 39.4101 156.595 39.4101C156.733 39.4101 156.855 39.4001 156.961 39.38V40.3221C156.717 40.3967 156.466 40.4339 156.208 40.4339C155.336 40.4339 154.892 39.9937 154.874 39.1133V36.6053H154.195V35.6933H154.874V34.549H156.118ZM158.918 40.3479H157.671V35.6933H158.918V40.3479ZM157.598 34.4887C157.598 34.3023 157.659 34.1489 157.783 34.0284C157.909 33.908 158.079 33.8478 158.294 33.8478C158.507 33.8478 158.676 33.908 158.802 34.0284C158.928 34.1489 158.991 34.3023 158.991 34.4887C158.991 34.678 158.927 34.8329 158.798 34.9533C158.672 35.0738 158.504 35.134 158.294 35.134C158.085 35.134 157.916 35.0738 157.787 34.9533C157.661 34.8329 157.598 34.678 157.598 34.4887ZM159.753 37.9776C159.753 37.5158 159.842 37.1043 160.019 36.7429C160.197 36.3816 160.453 36.1019 160.785 35.9041C161.121 35.7062 161.509 35.6072 161.951 35.6072C162.579 35.6072 163.091 35.7994 163.487 36.1837C163.885 36.568 164.108 37.0899 164.154 37.7496L164.162 38.0679C164.162 38.782 163.963 39.3556 163.564 39.7887C163.166 40.2188 162.631 40.4339 161.96 40.4339C161.289 40.4339 160.752 40.2188 160.351 39.7887C159.952 39.3585 159.753 38.7734 159.753 38.0335V37.9776ZM160.996 38.0679C160.996 38.5096 161.079 38.848 161.246 39.0831C161.412 39.3154 161.65 39.4316 161.96 39.4316C162.261 39.4316 162.496 39.3169 162.665 39.0874C162.834 38.8551 162.919 38.4852 162.919 37.9776C162.919 37.5445 162.834 37.209 162.665 36.9709C162.496 36.7329 162.258 36.6139 161.951 36.6139C161.647 36.6139 161.412 36.7329 161.246 36.9709C161.079 37.2061 160.996 37.5718 160.996 38.0679ZM166.072 35.6933L166.111 36.231C166.444 35.8152 166.89 35.6072 167.449 35.6072C167.942 35.6072 168.309 35.7521 168.55 36.0417C168.791 36.3314 168.914 36.7644 168.92 37.3409V40.3479H167.677V37.371C167.677 37.1072 167.619 36.9164 167.505 36.7989C167.39 36.6784 167.199 36.6182 166.933 36.6182C166.583 36.6182 166.32 36.7673 166.145 37.0656V40.3479H164.902V35.6933H166.072ZM172.387 39.0616C172.387 38.9096 172.311 38.7906 172.159 38.7046C172.01 38.6157 171.769 38.5368 171.437 38.468C170.33 38.2357 169.776 37.7653 169.776 37.057C169.776 36.644 169.947 36.2998 170.288 36.0245C170.632 35.7463 171.081 35.6072 171.635 35.6072C172.225 35.6072 172.697 35.7463 173.05 36.0245C173.406 36.3027 173.583 36.6641 173.583 37.1086H172.34C172.34 36.9308 172.283 36.7845 172.168 36.6698C172.053 36.5522 171.874 36.4934 171.63 36.4934C171.421 36.4934 171.259 36.5407 171.144 36.6354C171.029 36.73 170.972 36.8505 170.972 36.9967C170.972 37.1344 171.037 37.2462 171.166 37.3323C171.298 37.4155 171.518 37.4886 171.828 37.5517C172.138 37.6119 172.399 37.6807 172.611 37.7582C173.268 37.9991 173.596 38.4164 173.596 39.01C173.596 39.4345 173.414 39.7786 173.05 40.0425C172.686 40.3034 172.215 40.4339 171.639 40.4339C171.249 40.4339 170.902 40.3651 170.598 40.2274C170.297 40.0869 170.06 39.8962 169.888 39.6553C169.716 39.4115 169.63 39.1491 169.63 38.8681H170.809C170.82 39.0889 170.902 39.2581 171.054 39.3757C171.206 39.4933 171.409 39.5521 171.665 39.5521C171.903 39.5521 172.082 39.5076 172.202 39.4187C172.326 39.3269 172.387 39.2079 172.387 39.0616Z" fill="#A9E950"/>
<path d="M180.919 33.194C181.048 33.1999 181.113 33.2645 181.113 33.3878C181.113 33.4877 181.08 33.6022 181.016 33.7314C180.951 33.8606 180.887 33.9634 180.822 34.0398C180.699 34.1925 180.558 34.2953 180.399 34.3481C180.241 34.401 180.058 34.4274 179.853 34.4274C179.782 34.4274 179.671 34.4215 179.518 34.4098C179.33 34.398 179.189 34.3951 179.095 34.401C179.048 34.401 178.992 34.401 178.928 34.401C178.869 34.401 178.828 34.4127 178.804 34.4362C178.787 34.4597 178.763 34.5126 178.734 34.5948C178.716 34.6535 178.705 34.7299 178.699 34.8239C178.699 34.9179 178.699 34.9854 178.699 35.0265L178.637 36.0044C178.619 36.3451 178.608 36.6447 178.602 36.9031C178.596 37.1557 178.59 37.3671 178.584 37.5374C178.584 37.7665 178.581 37.9368 178.575 38.0484C178.622 38.0367 178.655 38.0308 178.672 38.0308C178.802 38.0308 178.866 38.1307 178.866 38.3304C178.866 38.4713 178.843 38.6211 178.796 38.7797C178.755 38.9383 178.702 39.1145 178.637 39.3083C178.602 39.4081 178.525 39.5432 178.408 39.7136C178.296 39.878 178.17 40.0219 178.029 40.1453C177.888 40.2686 177.765 40.3303 177.659 40.3303C177.524 40.3303 177.433 40.2246 177.386 40.0131C177.339 39.8075 177.316 39.5609 177.316 39.2731C177.316 38.95 177.348 38.5418 177.412 38.0484L177.474 37.4141C177.562 36.2688 177.671 35.3349 177.8 34.6124C177.765 34.6242 177.668 34.6565 177.509 34.7093C177.357 34.7563 177.216 34.8121 177.086 34.8767C176.957 34.9413 176.857 35.0089 176.787 35.0794C176.711 35.1616 176.643 35.2673 176.584 35.3965C176.508 35.5258 176.44 35.6256 176.382 35.6961C176.329 35.7666 176.249 35.8224 176.144 35.8635C176.079 35.8929 176.015 35.9075 175.95 35.9075C175.827 35.9075 175.765 35.8312 175.765 35.6785C175.765 35.5786 175.788 35.4611 175.835 35.3261C175.882 35.191 175.932 35.0823 175.985 35.0001C176.379 34.354 176.984 33.89 177.8 33.6081C178.617 33.3203 179.48 33.1764 180.39 33.1764C180.52 33.1764 180.696 33.1822 180.919 33.194ZM181.737 33.053C181.748 32.9414 181.842 32.8416 182.019 32.7535C182.195 32.6595 182.362 32.6125 182.521 32.6125C182.709 32.6125 182.8 32.683 182.794 32.8239C182.7 33.8753 182.544 35.3261 182.327 37.1762C182.186 38.439 182.095 39.2584 182.054 39.6343C182.042 39.7576 181.948 39.8692 181.772 39.9691C181.602 40.063 181.434 40.11 181.27 40.11C181.041 40.11 180.935 40.0249 180.953 39.8545C181.158 37.834 181.419 35.5669 181.737 33.053ZM184.69 37.3612L184.62 37.5374L185.237 38.0572L185.175 37.8017C185.134 37.6373 185.052 37.2878 184.928 36.7533L184.69 37.3612ZM185.695 34.7886C185.777 35.2996 185.88 35.8194 186.003 36.348C186.132 36.8708 186.288 37.4728 186.47 38.1541C186.64 38.8002 186.752 39.229 186.805 39.4404C186.811 39.4581 186.814 39.4845 186.814 39.5197C186.814 39.6607 186.734 39.784 186.576 39.8898C186.417 39.9896 186.253 40.0395 186.082 40.0395C185.941 40.0395 185.833 40.0014 185.756 39.925C185.586 39.7429 185.407 39.5697 185.219 39.4052C185.031 39.2407 184.784 39.0381 184.479 38.7973L184.188 38.5594C183.941 39.088 183.751 39.4786 183.615 39.7312C183.574 39.8193 183.466 39.9015 183.289 39.9779C183.119 40.0484 182.961 40.0836 182.814 40.0836C182.649 40.0836 182.567 40.0307 182.567 39.925C182.567 39.8956 182.576 39.8604 182.593 39.8193C182.77 39.3846 182.978 38.8854 183.219 38.3215L183.404 37.8722C183.257 37.7254 183.184 37.652 183.184 37.652C183.143 37.6108 183.122 37.5639 183.122 37.511C183.122 37.4112 183.187 37.3172 183.316 37.2291C183.445 37.1351 183.589 37.0734 183.748 37.0441C184.03 36.3686 184.294 35.6814 184.541 34.9825C184.564 34.9002 184.637 34.8297 184.761 34.771C184.89 34.7064 185.025 34.6653 185.166 34.6477C185.266 34.6183 185.351 34.6036 185.422 34.6036C185.586 34.6036 185.677 34.6653 185.695 34.7886ZM191.039 34.7534C191.138 34.7534 191.221 34.7769 191.285 34.8239C191.35 34.8709 191.382 34.9267 191.382 34.9913C191.382 35.0441 191.356 35.1029 191.303 35.1675C191.315 35.1557 191.171 35.3172 190.871 35.652C190.237 36.3569 189.773 36.8972 189.479 37.2731C189.873 37.8722 190.319 38.4625 190.818 39.044C190.859 39.0851 190.88 39.1321 190.88 39.1849C190.88 39.3024 190.789 39.417 190.607 39.5285C190.431 39.6343 190.257 39.6871 190.087 39.6871C189.97 39.6871 189.881 39.6548 189.823 39.5902C189.417 39.1262 189.065 38.6798 188.765 38.2511C188.542 38.5682 188.213 39.0499 187.779 39.6959C187.732 39.7606 187.641 39.8163 187.506 39.8633C187.371 39.9045 187.235 39.925 187.1 39.925C187 39.925 186.918 39.9133 186.854 39.8898C186.789 39.8604 186.757 39.8193 186.757 39.7664C186.757 39.7371 186.774 39.6959 186.81 39.6431C187.391 38.7738 187.887 38.0719 188.299 37.5374C187.876 36.862 187.517 36.1689 187.224 35.4582C187.212 35.4112 187.206 35.3789 187.206 35.3613C187.206 35.238 187.291 35.1264 187.462 35.0265C187.632 34.9208 187.802 34.8679 187.973 34.8679C188.16 34.8679 188.278 34.9296 188.325 35.0529C188.531 35.5463 188.774 36.0514 189.056 36.5683C189.538 35.9927 189.993 35.4846 190.422 35.0441C190.498 34.9619 190.592 34.8944 190.704 34.8415C190.821 34.7828 190.933 34.7534 191.039 34.7534ZM192.665 38.5154C193.282 38.0396 193.767 37.5345 194.119 37C193.649 36.859 193.176 36.5742 192.701 36.1454C192.689 36.6799 192.677 37.4699 192.665 38.5154ZM195.212 36.5154C195.253 36.5448 195.273 36.583 195.273 36.63C195.273 36.6711 195.262 36.7122 195.238 36.7533C194.927 37.3524 194.516 37.884 194.005 38.348C193.494 38.812 192.874 39.276 192.146 39.74C192.075 39.7811 191.996 39.8193 191.908 39.8545C191.82 39.8839 191.734 39.8986 191.652 39.8986C191.564 39.8986 191.488 39.8751 191.423 39.8281C191.353 39.7752 191.317 39.7106 191.317 39.6343C191.317 39.5344 191.373 39.4463 191.485 39.37C191.497 39.3641 191.508 39.3553 191.52 39.3435C191.532 39.3318 191.549 39.32 191.573 39.3083L191.608 37.1233C191.62 36.6476 191.632 35.9222 191.643 34.9472C191.638 34.9355 191.635 34.9149 191.635 34.8855C191.635 34.8738 191.641 34.8444 191.652 34.7974V34.7005C191.658 34.5889 191.734 34.495 191.881 34.4186C192.028 34.3364 192.184 34.2953 192.348 34.2953C192.46 34.2953 192.548 34.3158 192.613 34.3569C192.683 34.398 192.718 34.4627 192.718 34.5508V34.6389C193.429 35.6197 194.204 36.2188 195.044 36.4362C195.132 36.4655 195.188 36.4919 195.212 36.5154ZM198.631 39.1057C198.719 39.135 198.763 39.1879 198.763 39.2642C198.763 39.3582 198.707 39.461 198.596 39.5726C198.472 39.6959 198.314 39.7576 198.12 39.7576C198.026 39.7576 197.947 39.7459 197.882 39.7224C197.571 39.6225 197.289 39.5726 197.036 39.5726C196.596 39.5726 196.147 39.7136 195.688 39.9955C195.612 40.0484 195.518 40.0924 195.406 40.1276C195.301 40.157 195.201 40.1717 195.107 40.1717C195.019 40.1717 194.948 40.157 194.895 40.1276C194.843 40.0924 194.816 40.0395 194.816 39.9691C194.816 39.9279 194.822 39.8927 194.834 39.8633C195.004 39.3876 195.139 38.9588 195.239 38.577C195.345 38.1953 195.415 37.8076 195.451 37.4141C195.503 36.8855 195.53 36.4978 195.53 36.2511C195.53 35.5992 195.404 35.0999 195.151 34.7534C195.122 34.7182 195.107 34.6712 195.107 34.6124C195.107 34.495 195.189 34.3863 195.354 34.2864C195.518 34.1807 195.68 34.1279 195.838 34.1279C195.944 34.1279 196.02 34.1514 196.067 34.1983C196.144 34.2277 196.194 34.2747 196.217 34.3393C196.364 34.727 196.566 35.0559 196.825 35.3261C197.083 35.5904 197.389 35.7225 197.741 35.7225C197.806 35.7225 197.903 35.7108 198.032 35.6873C198.114 35.6755 198.167 35.6697 198.191 35.6697C198.29 35.6697 198.364 35.6932 198.411 35.7401C198.464 35.7813 198.49 35.84 198.49 35.9163C198.49 35.9986 198.455 36.0808 198.384 36.163C198.32 36.2453 198.232 36.304 198.12 36.3392C197.879 36.4215 197.638 36.4626 197.398 36.4626C197.11 36.4626 196.834 36.4038 196.569 36.2864C196.558 36.6153 196.543 36.862 196.525 37.0264L196.464 37.5815C196.693 37.5404 196.922 37.5051 197.151 37.4758L197.274 37.4669C197.509 37.4669 197.627 37.5462 197.627 37.7048C197.627 37.8105 197.568 37.9045 197.45 37.9868C197.333 38.069 197.213 38.1218 197.089 38.1453C196.907 38.1806 196.658 38.2188 196.34 38.2599C196.276 38.5477 196.205 38.8179 196.129 39.0704C196.517 38.9295 196.91 38.859 197.309 38.859C197.75 38.859 198.191 38.9412 198.631 39.1057ZM202.6 34.3922C202.664 34.3452 202.744 34.3041 202.838 34.2688C202.932 34.2336 203.02 34.216 203.102 34.216C203.167 34.216 203.225 34.2336 203.278 34.2688C203.349 34.3158 203.384 34.3804 203.384 34.4627C203.384 34.5625 203.337 34.6535 203.243 34.7358C202.955 34.9883 202.72 35.2996 202.538 35.6697C202.362 36.0338 202.186 36.4802 202.009 37.0088C201.78 37.7078 201.51 38.6505 201.199 39.8369C201.17 39.9368 201.07 40.0425 200.899 40.1541C200.729 40.2598 200.57 40.3127 200.424 40.3127C200.294 40.3127 200.209 40.2569 200.168 40.1453C199.622 38.5888 199.331 36.8855 199.296 35.0353C199.29 34.912 199.378 34.7945 199.56 34.6829C199.748 34.5713 199.924 34.5155 200.089 34.5155C200.259 34.5155 200.344 34.5801 200.344 34.7093C200.344 35.7959 200.465 36.8708 200.706 37.9339C200.858 37.417 201.005 36.9765 201.146 36.6124C201.34 36.0896 201.545 35.6462 201.763 35.282C201.98 34.912 202.259 34.6154 202.6 34.3922ZM205.556 36.1895C205.445 36.0955 205.251 35.9721 204.975 35.8194C204.705 35.6608 204.496 35.5816 204.349 35.5816C204.232 35.5816 204.173 35.6403 204.173 35.7578C204.173 35.7989 204.188 35.8694 204.217 35.9692C204.258 36.1043 204.349 36.2335 204.49 36.3569C204.631 36.4743 204.816 36.6124 205.045 36.7709C205.233 36.9002 205.354 36.9883 205.407 37.0352C205.665 37.2584 205.871 37.4464 206.023 37.5991C206.176 37.7459 206.314 37.9221 206.437 38.1277C206.567 38.3274 206.631 38.533 206.631 38.7444C206.631 38.8854 206.596 39.0322 206.525 39.1849C206.39 39.461 206.167 39.6724 205.856 39.8193C205.55 39.9661 205.225 40.0395 204.878 40.0395C204.76 40.0395 204.643 40.0307 204.526 40.0131C203.727 39.878 202.99 39.3465 202.314 38.4185C202.279 38.3656 202.261 38.3127 202.261 38.2599C202.261 38.1307 202.346 38.0132 202.517 37.9075C202.693 37.7959 202.866 37.7401 203.037 37.7401C203.166 37.7401 203.26 37.7782 203.319 37.8546C203.683 38.348 204.041 38.7092 204.393 38.9383C204.716 39.1497 204.99 39.2554 205.213 39.2554C205.395 39.2554 205.486 39.1761 205.486 39.0176C205.486 38.906 205.442 38.7679 205.354 38.6035C205.266 38.4449 205.151 38.2951 205.01 38.1541C204.869 38.0132 204.69 37.8517 204.473 37.6696L204.235 37.4669C204.211 37.4435 204.103 37.3583 203.909 37.2115C203.75 37.094 203.615 36.9853 203.504 36.8855C203.392 36.7856 203.298 36.677 203.222 36.5595C203.122 36.4009 203.072 36.2365 203.072 36.0661C203.072 35.8018 203.183 35.561 203.407 35.3437C203.636 35.1205 203.897 34.9678 204.191 34.8855C204.379 34.8327 204.558 34.8063 204.728 34.8063C205.045 34.8063 205.351 34.8797 205.644 35.0265C205.944 35.1733 206.246 35.376 206.552 35.6344C206.605 35.6755 206.631 35.7255 206.631 35.7842C206.631 35.8958 206.54 36.0044 206.358 36.1102C206.176 36.2159 205.997 36.2688 205.821 36.2688C205.703 36.2688 205.615 36.2423 205.556 36.1895ZM210.303 37.2203C210.291 37.3142 210.32 37.3877 210.391 37.4405C210.461 37.4875 210.558 37.511 210.682 37.511C210.887 37.511 211.09 37.4581 211.29 37.3524C211.489 37.2408 211.592 37.1116 211.598 36.9648C211.627 36.2599 211.642 35.5551 211.642 34.8503C211.642 34.1455 211.627 33.4348 211.598 32.7182C211.574 32.6242 211.481 32.5773 211.316 32.5773C211.187 32.5773 211.043 32.6066 210.884 32.6654C210.726 32.7241 210.597 32.8005 210.497 32.8944C210.397 32.9825 210.359 33.0736 210.382 33.1675C210.382 33.6257 210.367 34.1983 210.338 34.8855C210.332 35.0559 210.323 35.3407 210.312 35.7401C210.3 36.1395 210.294 36.4743 210.294 36.7445C210.294 36.9618 210.297 37.1204 210.303 37.2203ZM209.633 38.9735C209.592 38.9383 209.572 38.8971 209.572 38.8502C209.572 38.7738 209.624 38.6945 209.73 38.6123C209.836 38.5242 209.965 38.4508 210.118 38.392C210.276 38.3333 210.417 38.3039 210.541 38.3039C210.652 38.3039 210.735 38.3274 210.787 38.3744L210.849 38.4273C210.972 38.3568 211.128 38.3098 211.316 38.2863C211.41 38.2746 211.504 38.2892 211.598 38.3304C211.692 38.3656 211.739 38.4214 211.739 38.4977C211.739 38.533 211.724 38.5741 211.695 38.6211C211.666 38.6563 211.636 38.6974 211.607 38.7444C211.583 38.7855 211.551 38.8325 211.51 38.8854L211.792 39.044C211.921 39.1145 212.015 39.1703 212.074 39.2114C212.127 39.2349 212.153 39.2701 212.153 39.3171C212.153 39.3758 212.115 39.4463 212.038 39.5285C211.968 39.6049 211.903 39.6607 211.845 39.6959C211.757 39.7488 211.651 39.7958 211.527 39.8369C211.41 39.878 211.298 39.8986 211.193 39.8986C211.116 39.8986 211.055 39.8868 211.008 39.8633C210.908 39.8046 210.84 39.7694 210.805 39.7576C210.699 39.8575 210.573 39.9368 210.426 39.9955C210.285 40.0484 210.141 40.0718 209.995 40.066C209.901 40.0601 209.821 40.0395 209.757 40.0043C209.698 39.9632 209.669 39.9074 209.669 39.8369C209.669 39.7899 209.686 39.7312 209.721 39.6607C209.78 39.5374 209.865 39.4199 209.977 39.3083C209.995 39.2848 210.012 39.2701 210.03 39.2642C209.93 39.1996 209.798 39.1027 209.633 38.9735Z" fill="#FF5572"/>
<g filter="url(#filter3_d_22_2)">
<g clip-path="url(#clip0_22_2)">
<rect x="105.107" y="70.1619" width="57.1033" height="5.37443" rx="1.67951" fill="#757171"/>
<rect x="132.987" y="72.1772" width="6.04623" height="1.45557" rx="0.727787" fill="#ECE5E5"/>
<circle cx="129.236" cy="72.9051" r="0.951722" fill="#ECE5E5"/>
<circle cx="156.893" cy="72.2039" r="0.922457" fill="#FFF5F5"/>
<rect x="155.381" y="73.3479" width="3.02566" height="1.18075" rx="0.590373" fill="#FFF5F5"/>
<rect x="106.115" y="77.1038" width="16.1233" height="27.9918" rx="5.8223" fill="#757171"/>
<rect x="111.042" y="82.0303" width="8.50951" height="2.01541" rx="1.00771" fill="#C4C4C4"/>
<circle cx="109.474" cy="82.926" r="0.895738" fill="#C4C4C4"/>
<rect x="111.042" y="86.509" width="8.50951" height="2.01541" rx="1.00771" fill="#C4C4C4"/>
<circle cx="109.474" cy="87.5168" r="0.895738" fill="#C4C4C4"/>
<rect x="111.042" y="91.0996" width="8.50951" height="2.01541" rx="1.00771" fill="#C4C4C4"/>
<circle cx="109.474" cy="91.9956" r="0.895738" fill="#C4C4C4"/>
<rect x="125.485" y="78.8953" width="34.5979" height="25.3046" rx="5.03853" fill="#C4C4C4" fill-opacity="0.75"/>
<circle cx="131.42" cy="86.0611" r="2.23935" fill="#FB5582"/>
<circle cx="131.42" cy="92.1075" r="2.23935" fill="#25FED7"/>
<circle cx="131.532" cy="98.1536" r="2.23935" fill="#FCCA06"/>
<rect x="136.01" y="95.9143" width="19.3703" height="5.03853" rx="2.23934" fill="#C4C4C4"/>
<rect x="136.01" y="89.5322" width="19.3703" height="5.03853" rx="2.23934" fill="#C4C4C4"/>
<rect x="136.01" y="83.262" width="19.3703" height="5.03853" rx="2.23934" fill="#C4C4C4"/>
</g>
<rect x="103.932" y="69.5461" width="59.3426" height="37.509" rx="2.7432" stroke="url(#paint4_linear_22_2)" stroke-width="1.00771" shape-rendering="crispEdges"/>
</g>
</g>
<defs>
<filter id="filter0_d_22_2" x="0.513984" y="1" width="265.972" height="153.054" filterUnits="userSpaceOnUse" color-interpolation-filters="sRGB">
<feFlood flood-opacity="0" result="BackgroundImageFix"/>
<feColorMatrix in="SourceAlpha" type="matrix" values="0 0 0 0 0 0 0 0 0 0 0 0 0 0 0 0 0 0 127 0" result="hardAlpha"/>
<feOffset dy="0.486016"/>
<feGaussianBlur stdDeviation="0.243008"/>
<feColorMatrix type="matrix" values="0 0 0 0 0 0 0 0 0 0 0 0 0 0 0 0 0 0 0.25 0"/>
<feBlend mode="normal" in2="BackgroundImageFix" result="effect1_dropShadow_22_2"/>
<feBlend mode="normal" in="SourceGraphic" in2="effect1_dropShadow_22_2" result="shape"/>
</filter>
<filter id="filter1_f_22_2" x="10.51" y="148.623" width="246.112" height="6.28086" filterUnits="userSpaceOnUse" color-interpolation-filters="sRGB">
<feFlood flood-opacity="0" result="BackgroundImageFix"/>
<feBlend mode="normal" in="SourceGraphic" in2="BackgroundImageFix" result="shape"/>
<feGaussianBlur stdDeviation="0.911279" result="effect1_foregroundBlur_22_2"/>
</filter>
<filter id="filter2_dd_22_2" x="25.6832" y="0.756992" width="215.634" height="148.309" filterUnits="userSpaceOnUse" color-interpolation-filters="sRGB">
<feFlood flood-opacity="0" result="BackgroundImageFix"/>
<feColorMatrix in="SourceAlpha" type="matrix" values="0 0 0 0 0 0 0 0 0 0 0 0 0 0 0 0 0 0 127 0" result="hardAlpha"/>
<feOffset/>
<feGaussianBlur stdDeviation="0.121504"/>
<feColorMatrix type="matrix" values="0 0 0 0 0 0 0 0 0 0.0823529 0 0 0 0 0.25098 0 0 0 0.14 0"/>
<feBlend mode="normal" in2="BackgroundImageFix" result="effect1_dropShadow_22_2"/>
<feColorMatrix in="SourceAlpha" type="matrix" values="0 0 0 0 0 0 0 0 0 0 0 0 0 0 0 0 0 0 127 0" result="hardAlpha"/>
<feOffset dy="0.243008"/>
<feGaussianBlur stdDeviation="0.243008"/>
<feColorMatrix type="matrix" values="0 0 0 0 0 0 0 0 0 0.0823529 0 0 0 0 0.25098 0 0 0 0.05 0"/>
<feBlend mode="normal" in2="effect1_dropShadow_22_2" result="effect2_dropShadow_22_2"/>
<feBlend mode="normal" in="SourceGraphic" in2="effect2_dropShadow_22_2" result="shape"/>
</filter>
<filter id="filter3_d_22_2" x="91.6061" y="69.0422" width="72.172" height="47.3623" filterUnits="userSpaceOnUse" color-interpolation-filters="sRGB">
<feFlood flood-opacity="0" result="BackgroundImageFix"/>
<feColorMatrix in="SourceAlpha" type="matrix" values="0 0 0 0 0 0 0 0 0 0 0 0 0 0 0 0 0 0 127 0" result="hardAlpha"/>
<feOffset dx="-11.8217" dy="8.84541"/>
<feComposite in2="hardAlpha" operator="out"/>
<feColorMatrix type="matrix" values="0 0 0 0 0.4375 0 0 0 0 1 0 0 0 0 0.964844 0 0 0 0.1 0"/>
<feBlend mode="normal" in2="BackgroundImageFix" result="effect1_dropShadow_22_2"/>
<feBlend mode="normal" in="SourceGraphic" in2="effect1_dropShadow_22_2" result="shape"/>
</filter>
<linearGradient id="paint0_linear_22_2" x1="1" y1="146.361" x2="133.5" y2="146.361" gradientUnits="userSpaceOnUse">
<stop stop-color="#717576"/>
<stop offset="0.016907" stop-color="#9C9FA1"/>
<stop offset="0.0353058" stop-color="#9C9FA1"/>
<stop offset="0.0571855" stop-color="#797E82"/>
<stop offset="0.0979612" stop-color="#797E82"/>
<stop offset="0.151169" stop-color="#B2B5B7"/>
<stop offset="0.756906" stop-color="#CACDCF"/>
<stop offset="1" stop-color="#CACDCF"/>
</linearGradient>
<linearGradient id="paint1_linear_22_2" x1="265.934" y1="146.36" x2="133.434" y2="146.36" gradientUnits="userSpaceOnUse">
<stop stop-color="#717576"/>
<stop offset="0.016907" stop-color="#9C9FA1"/>
<stop offset="0.0353058" stop-color="#9C9FA1"/>
<stop offset="0.0571855" stop-color="#797E82"/>
<stop offset="0.0979612" stop-color="#797E82"/>
<stop offset="0.151169" stop-color="#B2B5B7"/>
<stop offset="0.756906" stop-color="#CACDCF"/>
<stop offset="1" stop-color="#CACDCF"/>
</linearGradient>
<linearGradient id="paint2_linear_22_2" x1="114.458" y1="145.702" x2="152.278" y2="145.702" gradientUnits="userSpaceOnUse">
<stop stop-opacity="0.5"/>
<stop offset="0.139373" stop-color="#818487" stop-opacity="0"/>
<stop offset="0.860627" stop-color="#818487" stop-opacity="0"/>
<stop offset="1" stop-opacity="0.5"/>
</linearGradient>
<linearGradient id="paint3_linear_22_2" x1="133.5" y1="148.337" x2="133.5" y2="152.027" gradientUnits="userSpaceOnUse">
<stop stop-color="#838688"/>
<stop offset="1" stop-color="#17191B"/>
</linearGradient>
<linearGradient id="paint4_linear_22_2" x1="106.843" y1="72.5692" x2="162.434" y2="105.767" gradientUnits="userSpaceOnUse">
<stop stop-color="#25FED7"/>
<stop offset="1" stop-color="#932187"/>
</linearGradient>
<clipPath id="clip0_22_2">
<rect x="103.428" y="69.0422" width="60.3503" height="38.5167" rx="3.24705" fill="white"/>
</clipPath>
</defs>
</svg>
