<svg id="Layer_1" height="512" viewBox="0 0 512 512" width="512" xmlns="http://www.w3.org/2000/svg" data-name="Layer 1"><path d="m198.086 301.626a5 5 0 0 1 3.635 1.567l39.51 41.827 56.522-89.687a5 5 0 0 1 4.221-2.333h.009a5.216 5.216 0 0 1 4.345 2.318l60.672 95.275v-143.593h-222v148.305l49.339-52.113a5.257 5.257 0 0 1 3.747-1.566zm36.651-68.2a27.346 27.346 0 1 1 -27.345 27.346 27.376 27.376 0 0 1 27.345-27.349z"/><path d="m62.362 308.351a23.109 23.109 0 1 0 -23.108-23.108 23.135 23.135 0 0 0 23.108 23.108zm-10.278-26.644 11.49-11.49a5 5 0 1 1 7.071 7.071l-7.955 7.955 7.955 7.954a5 5 0 0 1 -7.071 7.071l-11.49-11.49a5 5 0 0 1 0-7.071z"/><path d="m118 226h17v119h-17z"/><path d="m449.658 308.351a23.109 23.109 0 1 0 -23.109-23.108 23.135 23.135 0 0 0 23.109 23.108zm-8.283-31.063a5 5 0 0 1 7.071-7.071l11.49 11.49a5 5 0 0 1 0 7.071l-11.49 11.49a5 5 0 0 1 -7.071-7.071l7.954-7.954z"/><path d="m234.737 278.114a17.346 17.346 0 1 0 -17.345-17.345 17.365 17.365 0 0 0 17.345 17.345z"/><path d="m377 226h17v119h-17z"/><path d="m248.321 352.424 10.085 10.576h104.51l-60.915-95.803z"/><path d="m151.522 363h93.128l-46.564-49.295z"/><path d="m47.113 96.733a5.492 5.492 0 1 0 5.491 5.492 5.5 5.5 0 0 0 -5.491-5.492z"/><path d="m83.918 96.733a5.492 5.492 0 1 0 5.492 5.492 5.5 5.5 0 0 0 -5.492-5.492z"/><path d="m465.749 73h-419.478c-13.924 0-25.271 11.814-25.271 25.738v34.262h470v-34.262c0-13.924-11.328-25.738-25.251-25.738zm-418.636 44.717a15.492 15.492 0 1 1 15.487-15.492 15.509 15.509 0 0 1 -15.487 15.492zm36.805 0a15.492 15.492 0 1 1 15.492-15.492 15.509 15.509 0 0 1 -15.492 15.492zm36.8 0a15.492 15.492 0 1 1 15.492-15.492 15.51 15.51 0 0 1 -15.487 15.492z"/><path d="m120.723 96.733a5.492 5.492 0 1 0 5.492 5.492 5.5 5.5 0 0 0 -5.492-5.492z"/><path d="m21 413.262c0 13.924 11.347 25.738 25.271 25.738h419.478c13.923 0 25.251-11.814 25.251-25.738v-270.262h-470zm428.658-161.128a33.109 33.109 0 1 1 -33.109 33.109 33.146 33.146 0 0 1 33.109-33.109zm-72.658-49.851v13.717h21.861a5.051 5.051 0 0 1 5.139 4.917v128.651a5.506 5.506 0 0 1 -5.139 5.432h-21.861v13.2a5.051 5.051 0 0 1 -5.25 4.8h-231.524a5.03 5.03 0 0 1 -5.226-4.8v-13.2h-21.841a5.523 5.523 0 0 1 -5.159-5.432v-128.651a5.068 5.068 0 0 1 5.159-4.917h21.841v-13.717a5.446 5.446 0 0 1 5.226-5.283h231.524a5.466 5.466 0 0 1 5.25 5.283zm-314-40.283h92a5 5 0 0 1 0 10h-92a5 5 0 0 1 0-10zm-22 0h2a5 5 0 0 1 0 10h-2a5 5 0 0 1 0-10zm21.362 90.134a33.109 33.109 0 1 1 -33.108 33.109 33.147 33.147 0 0 1 33.108-33.109z"/></svg>